<?xml version="1.0" standalone="no"?>
<!DOCTYPE svg PUBLIC "-//W3C//DTD SVG 20010904//EN"
 "http://www.w3.org/TR/2001/REC-SVG-20010904/DTD/svg10.dtd">
<svg version="1.0" xmlns="http://www.w3.org/2000/svg"
 width="512.000000pt" height="512.000000pt" viewBox="0 0 512.000000 512.000000"
 preserveAspectRatio="xMidYMid meet">

<g transform="translate(0.000000,512.000000) scale(0.100000,-0.100000)"
fill="#000000" stroke="none">
<path d="M2095 5104 c-433 -59 -811 -275 -1131 -647 -279 -324 -414 -643 -414
-976 0 -268 75 -510 277 -901 276 -532 290 -564 329 -736 21 -95 30 -429 15
-575 -33 -316 -130 -709 -257 -1041 -28 -74 -32 -92 -23 -118 12 -34 35 -50
74 -50 48 0 63 17 103 122 259 674 342 1369 216 1806 -35 120 -81 220 -236
514 -237 448 -298 606 -328 852 -46 364 105 730 448 1088 474 494 1086 637
1760 413 252 -84 428 -186 594 -343 250 -238 405 -532 463 -880 14 -81 16
-142 13 -280 l-5 -177 209 -368 c152 -267 208 -373 203 -387 -15 -46 -115 -97
-246 -124 -56 -11 -80 -21 -96 -41 -36 -41 -29 -67 42 -152 36 -43 65 -80 65
-84 0 -3 -20 -20 -44 -38 -88 -62 -106 -87 -106 -143 0 -54 8 -65 99 -138 l44
-36 -13 -68 c-14 -77 -8 -211 14 -291 7 -27 10 -59 6 -70 -23 -65 -162 -84
-460 -64 -118 8 -245 13 -282 11 -178 -7 -287 -108 -331 -307 -25 -112 -36
-261 -39 -552 l-3 -271 24 -26 c30 -32 69 -34 105 -5 25 20 26 23 26 137 1
217 19 566 35 646 8 44 25 100 37 125 44 88 101 106 278 89 168 -16 462 -16
535 1 110 25 193 80 221 148 19 43 18 127 -2 204 -20 77 -15 192 11 264 25 71
16 95 -55 150 -33 25 -60 49 -60 53 0 4 28 27 61 52 117 87 125 117 50 207
l-50 60 54 17 c30 9 83 36 117 59 79 53 120 115 126 192 l4 55 -206 362 -206
363 -3 210 c-4 229 -18 322 -77 507 -41 128 -156 353 -237 468 -179 250 -434
449 -723 565 -350 141 -707 193 -1025 149z"/>
<path d="M2284 4356 c-28 -13 -67 -38 -86 -55 -22 -19 -39 -28 -43 -21 -3 6
-30 23 -58 38 -45 23 -63 27 -142 27 -78 0 -97 -4 -141 -27 -51 -27 -116 -90
-135 -131 -9 -21 -16 -22 -77 -19 -81 5 -132 -8 -193 -47 -57 -36 -94 -83
-124 -158 -18 -44 -30 -60 -52 -68 -167 -60 -249 -262 -172 -422 26 -54 94
-124 136 -142 28 -11 28 -13 28 -94 0 -95 20 -149 80 -215 78 -87 221 -123
329 -85 l50 18 60 -61 c43 -43 76 -66 110 -77 55 -19 151 -22 190 -7 24 9 27
6 40 -23 33 -80 124 -150 223 -173 44 -10 62 -21 91 -55 59 -67 120 -158 164
-242 45 -86 92 -132 153 -148 102 -28 229 49 261 157 l16 55 -41 145 c-23 79
-41 147 -41 149 0 3 50 5 111 5 127 0 159 10 213 71 43 47 71 133 62 193 l-7
42 58 30 c134 68 173 239 82 362 l-29 40 27 53 c37 71 39 188 6 260 -45 98
-142 172 -245 185 -46 6 -48 8 -48 38 0 17 -13 58 -29 91 -64 136 -211 207
-352 171 -61 -16 -78 -13 -79 16 0 22 -83 95 -135 120 -80 38 -185 40 -261 4z
m184 -141 c49 -21 79 -51 93 -92 9 -29 8 -42 -11 -85 -31 -72 -32 -134 -1
-159 31 -25 81 -24 110 2 26 24 60 94 61 122 0 21 50 53 96 62 45 8 114 -23
144 -65 12 -17 25 -51 27 -74 5 -40 3 -45 -42 -87 -50 -46 -85 -104 -85 -139
0 -32 44 -70 80 -70 38 0 106 45 144 94 22 29 34 36 62 36 82 0 154 -70 154
-149 0 -85 -52 -141 -132 -141 -61 0 -82 -11 -98 -49 -9 -24 -9 -35 2 -57 19
-40 53 -54 132 -54 58 0 74 -4 93 -22 30 -28 31 -83 1 -115 -21 -23 -26 -23
-217 -23 -186 0 -196 -1 -218 -22 -26 -24 -30 -72 -9 -100 21 -28 62 -38 161
-38 86 0 95 -2 109 -22 19 -27 20 -64 3 -98 -12 -25 -13 -25 -184 -30 -184 -5
-204 -11 -217 -64 -3 -14 17 -101 49 -211 50 -173 54 -190 40 -211 -19 -29
-52 -39 -71 -23 -9 7 -27 36 -41 63 -83 165 -246 361 -309 371 -19 3 -49 7
-67 10 -42 7 -94 56 -106 101 -8 29 -5 43 21 93 41 80 43 134 5 167 -16 13
-39 24 -53 24 -28 0 -74 -41 -74 -65 0 -9 -9 -33 -20 -54 -54 -107 -210 -109
-266 -3 -21 40 -21 41 -3 94 24 71 24 119 -2 152 -44 56 -139 18 -139 -56 0
-46 -38 -107 -80 -129 -99 -53 -220 19 -220 130 0 25 4 51 8 57 4 6 30 19 59
28 33 11 70 34 103 65 42 39 50 53 50 83 0 50 -28 82 -73 82 -28 0 -45 -9 -80
-41 -56 -52 -100 -62 -163 -38 -104 39 -130 184 -46 253 23 18 27 16 41 -23
14 -41 47 -66 117 -91 43 -15 56 -16 82 -5 72 30 63 118 -15 152 l-43 18 0 63
c0 108 61 178 155 178 53 0 61 -7 80 -65 30 -88 100 -165 151 -165 12 0 33 9
48 21 22 17 26 28 26 72 -1 62 -18 114 -55 167 l-27 39 19 33 c55 94 186 106
252 22 12 -15 21 -41 21 -58 0 -46 19 -105 41 -127 27 -27 74 -24 104 6 22 21
25 33 25 95 0 101 22 139 97 166 49 17 56 17 101 -1z"/>
<path d="M2425 3701 c-16 -10 -68 -57 -114 -104 l-84 -86 -29 25 c-60 50 -138
21 -138 -52 0 -29 9 -45 53 -91 59 -64 104 -87 139 -74 13 5 85 72 161 148
114 116 137 145 137 169 -1 33 -15 55 -47 72 -30 16 -43 15 -78 -7z"/>
</g>
</svg>
