<?xml version="1.0" standalone="no"?>
<!DOCTYPE svg PUBLIC "-//W3C//DTD SVG 20010904//EN"
 "http://www.w3.org/TR/2001/REC-SVG-20010904/DTD/svg10.dtd">
<svg version="1.0" xmlns="http://www.w3.org/2000/svg"
 width="542.000000pt" height="359.000000pt" viewBox="0 0 542.000000 359.000000"
 preserveAspectRatio="xMidYMid meet">

<g transform="translate(0.000000,359.000000) scale(0.100000,-0.100000)"
fill="#000000" stroke="none">
<path d="M3113 3009 c-107 -68 -67 -242 59 -256 116 -13 196 104 143 208 -35
66 -136 90 -202 48z"/>
<path d="M2383 2954 c-65 -32 -93 -127 -59 -192 8 -15 67 -79 130 -142 l116
-115 35 35 34 35 -16 46 c-15 41 -15 50 -2 85 21 55 71 87 129 82 25 -3 52 -8
61 -12 24 -11 34 52 15 97 -39 95 -159 123 -225 53 l-22 -24 -51 34 c-56 38
-95 43 -145 18z"/>
<path d="M2720 2715 c0 -20 -5 -25 -25 -25 -20 0 -25 -5 -25 -25 0 -20 5 -25
25 -25 20 0 25 -5 25 -25 0 -18 5 -25 20 -25 15 0 20 7 20 24 0 19 6 25 28 28
19 2 27 9 27 23 0 14 -8 21 -27 23 -22 3 -28 9 -28 28 0 17 -5 24 -20 24 -15
0 -20 -7 -20 -25z"/>
<path d="M3077 2703 c-40 -6 -99 -69 -135 -145 -33 -71 -51 -83 -134 -94 -65
-8 -88 -27 -88 -70 0 -49 33 -68 102 -59 87 12 154 42 192 86 l34 40 7 -119 7
-119 117 -17 c64 -9 124 -16 134 -16 15 0 17 13 17 131 0 78 4 128 9 124 5 -3
20 -49 32 -103 26 -119 39 -142 79 -142 33 0 70 30 70 58 0 37 -52 227 -80
296 -35 84 -81 134 -136 147 -39 8 -174 10 -227 2z"/>
<path d="M2205 2472 c-72 -34 -99 -102 -71 -177 54 -139 266 -99 266 50 0 103
-102 170 -195 127z"/>
<path d="M1943 2375 c-16 -7 -33 -20 -37 -30 -8 -22 -8 -888 0 -910 10 -26 62
-44 94 -33 40 13 50 47 50 158 l0 100 695 0 695 0 0 -104 c0 -57 3 -112 6
-121 11 -27 62 -45 96 -33 43 15 50 57 46 271 -3 173 -5 190 -22 203 -16 12
-98 14 -476 14 l-455 0 -67 33 c-36 17 -168 91 -292 162 l-225 130 -1 52 c0
29 -5 63 -11 77 -16 34 -57 47 -96 31z"/>
<path d="M2463 2270 c-17 -10 -37 -28 -42 -39 -16 -28 -13 -93 3 -117 8 -12
59 -47 113 -80 l98 -59 434 -3 c316 -2 437 1 447 9 19 15 18 64 -2 83 -8 9
-17 16 -19 16 -2 0 -155 22 -342 50 l-338 49 -140 55 c-77 31 -149 56 -160 56
-11 0 -34 -9 -52 -20z"/>
<path d="M295 1176 c-47 -21 -68 -51 -69 -99 -1 -58 19 -85 107 -146 80 -56
101 -83 99 -133 -1 -42 -32 -68 -81 -68 -62 0 -92 32 -117 120 -12 45 -12 44
-12 -45 0 -49 2 -82 5 -72 5 21 11 21 56 2 45 -19 127 -19 170 -1 51 21 72 52
72 105 0 56 -19 84 -94 137 -97 67 -121 93 -121 128 0 43 19 66 60 76 l35 8
-40 1 c-22 0 -53 -6 -70 -13z"/>
<path d="M3664 1176 c-40 -18 -74 -62 -74 -97 0 -49 18 -78 77 -121 103 -77
133 -111 133 -152 0 -49 -28 -76 -80 -76 -56 0 -95 38 -114 110 l-15 55 1 -90
c0 -49 2 -82 5 -72 6 21 11 21 59 1 54 -23 150 -16 192 14 39 28 58 86 41 129
-15 39 -43 67 -126 125 -77 53 -100 89 -83 132 10 28 22 37 64 47 30 7 30 7
-9 8 -22 0 -54 -6 -71 -13z"/>
<path d="M443 1157 c15 -12 34 -42 42 -67 l14 -45 0 52 c1 28 4 60 8 70 6 16
5 16 -10 4 -14 -11 -23 -12 -43 -2 -38 17 -42 13 -11 -12z"/>
<path d="M3809 1154 c18 -15 37 -45 45 -72 l15 -47 0 75 c0 56 -2 70 -10 58
-9 -16 -13 -17 -39 -3 -42 22 -46 18 -11 -11z"/>
<path d="M574 1090 c11 -14 52 -101 91 -193 78 -188 89 -199 121 -115 26 71
27 75 16 59 -12 -17 -14 -14 -72 133 -43 107 -43 109 -24 125 19 15 14 16 -67
16 l-87 0 22 -25z"/>
<path d="M799 1095 c23 -25 63 -114 56 -125 -3 -5 -1 -10 4 -12 5 -1 29 -52
54 -113 25 -62 51 -111 59 -113 11 -2 24 23 47 84 17 48 29 89 27 91 -3 3 -10
-14 -17 -36 -7 -23 -16 -38 -20 -34 -11 12 -89 223 -89 243 0 9 9 21 20 26 14
6 -8 9 -69 9 -89 0 -90 0 -72 -20z"/>
<path d="M1053 1105 c22 -13 27 -23 27 -55 0 -21 -5 -51 -10 -66 -6 -15 -9
-29 -6 -31 2 -2 12 19 21 47 9 28 28 64 42 80 l25 30 -45 0 c-25 0 -54 3 -64
6 -10 3 -6 -2 10 -11z"/>
<path d="M1262 1070 c-12 -27 -17 -50 -13 -50 4 0 18 -26 31 -57 12 -32 36
-86 51 -120 31 -67 36 -98 17 -106 -7 -3 22 -6 64 -6 l77 -1 -24 43 c-12 23
-54 111 -91 195 -38 83 -73 152 -80 152 -6 0 -21 -22 -32 -50z"/>
<path d="M1603 1105 c-43 -18 -67 -57 -58 -92 11 -49 34 -73 120 -129 93 -59
109 -86 81 -129 -14 -21 -24 -25 -66 -25 -62 0 -97 28 -121 96 l-17 49 0 -80
c0 -44 2 -72 5 -62 5 21 14 21 60 2 41 -17 120 -20 160 -4 50 19 73 48 73 95
0 52 -27 82 -129 143 -39 23 -76 51 -81 62 -17 30 -8 62 20 76 22 11 22 13 5
12 -11 0 -34 -6 -52 -14z"/>
<path d="M1735 1111 c29 -12 55 -44 71 -88 l13 -38 1 45 c0 25 3 56 6 70 6 23
6 24 -8 6 -14 -17 -16 -17 -46 -2 -17 9 -37 16 -44 15 -7 0 -4 -4 7 -8z"/>
<path d="M1901 1049 c0 -61 2 -70 11 -49 32 79 40 91 60 100 23 9 23 9 -2 10
-14 0 -35 3 -47 6 -22 6 -23 4 -22 -67z"/>
<path d="M2217 1113 l-28 -4 25 -20 c14 -11 32 -41 40 -67 l15 -47 0 57 c1 31
4 63 7 72 6 17 0 18 -59 9z"/>
<path d="M2613 1105 c26 -15 27 -19 27 -95 l0 -80 -85 0 -85 0 0 84 c0 58 4
86 13 89 6 3 -22 6 -62 6 -58 1 -72 -2 -63 -11 8 -8 12 -63 12 -180 0 -166 0
-169 -22 -178 -16 -6 5 -9 72 -9 67 0 88 3 73 9 -21 9 -23 16 -23 95 l0 85 85
0 85 0 0 -85 c0 -79 -2 -86 -22 -95 -16 -6 6 -9 72 -8 52 0 86 3 75 5 -11 3
-23 10 -27 17 -4 6 -8 82 -8 168 0 129 3 159 16 172 14 15 9 16 -54 16 -39 0
-79 3 -89 6 -10 3 -6 -2 10 -11z"/>
<path d="M2829 1095 c10 -11 44 -66 75 -122 55 -97 57 -104 54 -164 -3 -58 -5
-64 -28 -70 -14 -4 22 -7 80 -7 58 0 94 3 80 7 -24 6 -25 11 -28 85 -3 76 -2
80 43 164 26 48 55 94 66 104 10 9 19 18 19 20 0 1 -27 3 -60 3 -54 0 -57 -1
-34 -13 15 -8 24 -21 24 -37 0 -30 -61 -156 -72 -149 -10 6 -101 174 -97 178
2 2 12 7 21 12 11 6 -14 9 -72 9 -88 0 -89 0 -71 -20z"/>
<path d="M3306 1064 c-15 -31 -24 -59 -21 -62 3 -3 5 1 5 8 0 27 19 -6 70
-125 42 -96 50 -122 41 -137 -10 -17 -6 -18 65 -18 69 0 75 2 63 16 -8 9 -50
95 -94 192 -44 96 -85 177 -92 179 -6 2 -23 -22 -37 -53z"/>
<path d="M3970 1108 c25 -14 25 -14 28 -186 2 -171 2 -173 -20 -182 -16 -6 3
-9 67 -8 50 0 83 2 74 5 -22 5 -29 33 -29 111 0 47 4 64 15 68 27 11 65 -6 83
-35 l17 -29 0 73 c0 40 -3 71 -7 68 -5 -2 -8 -10 -8 -17 0 -22 -35 -46 -68
-46 l-32 0 0 74 c0 54 4 79 16 90 14 15 10 16 -39 16 -30 0 -70 3 -88 6 -33 6
-34 5 -9 -8z"/>
<path d="M4225 1110 c-22 -4 -33 -8 -24 -9 21 -1 48 -32 59 -67 8 -27 8 -26 9
13 1 23 4 48 7 57 3 9 2 15 -2 15 -5 -1 -27 -5 -49 -9z"/>
<path d="M4335 1100 c8 -9 48 -95 88 -190 44 -104 81 -176 89 -178 14 -3 21
10 56 97 3 9 1 12 -5 8 -11 -7 -103 207 -103 239 0 9 7 22 15 28 12 8 -5 11
-69 11 -76 0 -83 -2 -71 -15z"/>
<path d="M4565 1100 c22 -24 57 -113 52 -132 -3 -9 -1 -16 5 -15 5 1 30 -49
55 -111 32 -77 51 -112 61 -110 13 3 40 60 56 118 l7 25 -14 -24 c-13 -22 -14
-22 -21 -5 -64 165 -86 236 -76 249 9 11 -2 14 -64 17 -66 3 -73 1 -61 -12z"/>
<path d="M4825 1097 c30 -23 31 -46 5 -122 -11 -32 -18 -60 -16 -62 2 -2 12
20 21 49 22 66 42 107 66 133 18 20 17 20 -42 20 l-59 0 25 -18z"/>
<path d="M5035 1091 c-26 -52 -35 -81 -24 -78 5 1 35 -56 66 -127 53 -122 55
-130 37 -143 -15 -11 -6 -13 66 -13 79 0 82 1 67 18 -9 10 -52 96 -96 192 -43
96 -83 176 -89 178 -6 2 -18 -10 -27 -27z"/>
<path d="M2038 933 l-3 -177 -25 -13 c-22 -11 -11 -13 80 -11 58 0 95 3 82 5
-35 7 -42 41 -42 214 l0 159 -45 0 -45 0 -2 -177z"/>
<path d="M1226 995 c-9 -26 -7 -32 5 -12 6 10 9 21 6 23 -2 3 -7 -2 -11 -11z"/>
<path d="M4986 985 c-9 -26 -7 -32 5 -12 6 10 9 21 6 23 -2 3 -7 -2 -11 -11z"/>
<path d="M3252 945 c-17 -37 -14 -45 4 -12 9 16 14 31 11 33 -2 2 -9 -7 -15
-21z"/>
<path d="M836 935 c-9 -26 -7 -32 5 -12 6 10 9 21 6 23 -2 3 -7 -2 -11 -11z"/>
<path d="M4596 925 c-9 -26 -7 -32 5 -12 6 10 9 21 6 23 -2 3 -7 -2 -11 -11z"/>
<path d="M1182 891 c-6 -17 -9 -31 -6 -31 7 0 25 52 20 57 -2 2 -8 -10 -14
-26z"/>
<path d="M4946 895 c-9 -26 -7 -32 5 -12 6 10 9 21 6 23 -2 3 -7 -2 -11 -11z"/>
<path d="M816 885 c-9 -26 -7 -32 5 -12 6 10 9 21 6 23 -2 3 -7 -2 -11 -11z"/>
<path d="M4576 875 c-9 -26 -7 -32 5 -12 6 10 9 21 6 23 -2 3 -7 -2 -11 -11z"/>
<path d="M1146 811 c-8 -23 -25 -50 -36 -61 l-20 -20 58 1 c44 0 52 2 34 9
-30 12 -36 33 -23 71 16 47 6 46 -13 0z"/>
<path d="M4270 816 c-13 -40 -46 -73 -80 -79 -14 -2 3 -5 38 -6 l62 -1 0 60
c0 33 -2 60 -4 60 -3 0 -9 -15 -16 -34z"/>
<path d="M4905 799 c-10 -22 -28 -47 -39 -55 -19 -13 -15 -14 39 -13 48 0 55
2 36 10 -21 8 -23 14 -19 54 3 25 5 45 3 45 -1 0 -10 -18 -20 -41z"/>
<path d="M3185 790 c-10 -23 -26 -45 -34 -50 -11 -6 3 -9 44 -8 33 0 50 3 38
5 -25 5 -39 39 -28 72 11 35 -1 23 -20 -19z"/>
<path d="M695 470 c23 -45 35 -84 35 -110 0 -22 5 -40 10 -40 6 0 10 20 10 45
0 31 10 65 30 105 33 65 34 70 21 70 -5 0 -19 -25 -32 -55 -12 -30 -26 -55
-30 -55 -4 0 -17 25 -30 55 -12 30 -29 55 -36 55 -9 0 -2 -23 22 -70z"/>
<path d="M879 527 c-53 -41 -53 -153 0 -194 22 -17 72 -16 98 2 49 34 53 136
8 181 -27 26 -79 32 -106 11z m105 -50 c16 -33 17 -45 7 -77 -13 -45 -32 -62
-68 -62 -39 0 -63 34 -63 93 0 61 25 92 73 87 26 -2 36 -10 51 -41z"/>
<path d="M1072 451 c4 -104 19 -131 75 -131 59 0 73 26 72 133 l-2 92 -7 -87
c-4 -48 -12 -94 -19 -102 -19 -23 -49 -25 -74 -6 -19 16 -22 30 -26 104 -1 48
-7 86 -13 86 -6 0 -9 -34 -6 -89z"/>
<path d="M1290 431 c0 -63 4 -111 9 -111 6 0 11 21 13 48 3 40 6 47 25 50 18
3 27 -7 48 -47 14 -28 30 -51 35 -51 15 0 12 11 -14 54 l-24 40 24 19 c28 21
32 68 8 88 -8 7 -40 14 -70 17 l-54 4 0 -111z m108 77 c18 -18 14 -56 -7 -68
-11 -5 -33 -10 -50 -10 -30 0 -31 1 -31 45 l0 45 38 0 c21 0 43 -5 50 -12z"/>
<path d="M1560 430 c0 -67 4 -110 10 -110 6 0 10 25 10 55 l0 55 55 0 55 0 0
-55 c0 -30 5 -55 10 -55 6 0 10 43 10 110 0 67 -4 110 -10 110 -5 0 -10 -22
-10 -50 l0 -50 -55 0 -55 0 0 50 c0 28 -4 50 -10 50 -6 0 -10 -43 -10 -110z"/>
<path d="M1780 430 l0 -110 60 0 c33 0 60 4 60 10 0 6 -22 10 -50 10 l-50 0 0
44 0 45 43 4 42 4 -42 1 -43 2 0 40 0 40 50 0 c28 0 50 5 50 10 0 6 -27 10
-60 10 l-60 0 0 -110z"/>
<path d="M1970 443 c-18 -54 -35 -104 -38 -110 -2 -7 0 -13 6 -13 6 0 16 16
22 35 11 33 14 35 56 35 42 0 45 -2 51 -30 5 -29 19 -47 29 -38 8 9 -68 218
-80 218 -7 0 -28 -44 -46 -97z m64 23 c9 -30 16 -57 16 -60 0 -3 -16 -6 -35
-6 -19 0 -35 4 -35 8 0 14 30 112 35 112 2 0 11 -24 19 -54z"/>
<path d="M2140 430 l0 -110 60 0 c33 0 60 4 60 10 0 6 -22 10 -50 10 l-50 0 0
100 c0 60 -4 100 -10 100 -6 0 -10 -43 -10 -110z"/>
<path d="M2240 530 c0 -5 16 -10 35 -10 l35 0 0 -100 c0 -60 4 -100 10 -100 6
0 10 40 10 100 l0 100 35 0 c19 0 35 5 35 10 0 6 -33 10 -80 10 -47 0 -80 -4
-80 -10z"/>
<path d="M2450 430 c0 -67 4 -110 10 -110 6 0 10 25 10 55 l0 55 55 0 55 0 0
-55 c0 -30 5 -55 10 -55 6 0 10 43 10 110 0 67 -4 110 -10 110 -5 0 -10 -22
-10 -50 l0 -50 -55 0 -55 0 0 50 c0 28 -4 50 -10 50 -6 0 -10 -43 -10 -110z"/>
<path d="M2844 517 c-22 -19 -28 -34 -32 -80 -4 -52 -2 -58 26 -87 38 -37 80
-40 119 -6 25 22 28 31 28 86 0 55 -3 64 -28 86 -36 30 -78 31 -113 1z m105
-23 c54 -68 -2 -185 -73 -153 -73 34 -53 179 24 179 19 0 36 -9 49 -26z"/>
<path d="M3050 450 c0 -104 15 -130 73 -130 56 0 71 27 75 131 3 60 0 89 -7
89 -7 0 -11 -29 -11 -80 0 -72 -3 -83 -24 -105 -17 -16 -31 -23 -43 -18 -39
14 -43 24 -43 114 0 53 -4 89 -10 89 -6 0 -10 -37 -10 -90z"/>
<path d="M3270 431 c0 -67 4 -111 10 -111 6 0 10 23 10 50 0 43 3 50 20 50 14
0 29 -16 48 -50 15 -27 33 -50 40 -50 8 0 3 16 -15 47 l-27 46 22 15 c26 17
30 73 7 92 -9 7 -38 15 -65 18 l-50 5 0 -112z m94 83 c10 -4 16 -18 16 -35 0
-31 -23 -49 -64 -49 -24 0 -26 3 -26 45 0 43 1 45 29 45 16 0 36 -3 45 -6z"/>
<path d="M3530 431 c0 -67 4 -111 10 -111 6 0 10 20 10 45 l0 45 38 0 c53 0
82 23 82 64 0 44 -20 58 -86 64 l-54 4 0 -111z m108 77 c7 -7 12 -21 12 -33 0
-31 -19 -45 -62 -45 l-38 0 0 45 0 45 38 0 c21 0 43 -5 50 -12z"/>
<path d="M3730 430 c0 -67 4 -110 10 -110 6 0 10 23 10 50 0 43 3 50 20 50 14
0 29 -16 48 -50 15 -27 33 -50 40 -50 8 0 4 16 -14 46 l-27 46 21 17 c20 15
27 36 24 72 -3 21 -44 39 -92 39 l-40 0 0 -110z m96 82 c39 -27 11 -82 -42
-82 -34 0 -34 0 -34 45 0 44 1 45 33 45 17 0 37 -4 43 -8z"/>
<path d="M3920 430 c0 -67 4 -110 10 -110 6 0 10 43 10 110 0 67 -4 110 -10
110 -6 0 -10 -43 -10 -110z"/>
<path d="M4033 516 c-25 -22 -28 -31 -28 -86 0 -55 3 -64 28 -86 39 -33 81
-31 118 5 25 25 29 37 29 81 0 44 -4 56 -29 81 -37 36 -79 38 -118 5z m106
-22 c54 -68 -2 -185 -73 -153 -73 34 -53 179 24 179 19 0 36 -9 49 -26z"/>
<path d="M4240 431 c0 -67 4 -111 10 -111 6 0 10 23 10 51 0 46 2 50 22 47 13
-2 32 -20 48 -47 14 -25 32 -47 40 -49 8 -3 3 12 -14 42 l-28 47 26 24 c52 49
26 96 -58 103 l-56 4 0 -111z m110 68 c18 -33 -11 -69 -55 -69 -35 0 -35 0
-35 45 l0 45 40 0 c29 0 42 -5 50 -21z"/>
<path d="M4430 430 c0 -67 4 -110 10 -110 6 0 10 43 10 110 0 67 -4 110 -10
110 -6 0 -10 -43 -10 -110z"/>
<path d="M4500 530 c0 -5 16 -10 35 -10 l35 0 0 -100 c0 -60 4 -100 10 -100 6
0 10 40 10 100 l0 100 35 0 c19 0 35 5 35 10 0 6 -33 10 -80 10 -47 0 -80 -4
-80 -10z"/>
<path d="M4705 470 c23 -45 35 -84 35 -110 0 -22 5 -40 10 -40 6 0 10 20 10
45 0 31 10 65 30 105 32 64 34 70 22 70 -5 0 -19 -23 -32 -51 -13 -28 -27 -52
-31 -55 -4 -2 -19 21 -33 51 -14 30 -30 55 -36 55 -5 0 6 -31 25 -70z"/>
<path d="M360 400 c0 -6 42 -10 105 -10 63 0 105 4 105 10 0 6 -42 10 -105 10
-63 0 -105 -4 -105 -10z"/>
<path d="M4920 400 c0 -6 40 -10 100 -10 60 0 100 4 100 10 0 6 -40 10 -100
10 -60 0 -100 -4 -100 -10z"/>
<path d="M2660 342 c0 -4 6 -14 12 -20 10 -10 10 -17 0 -32 -7 -11 -8 -20 -3
-20 12 0 34 57 26 69 -7 13 -35 15 -35 3z"/>
</g>
</svg>
