<?xml version="1.0" standalone="no"?>
<!DOCTYPE svg PUBLIC "-//W3C//DTD SVG 20010904//EN"
 "http://www.w3.org/TR/2001/REC-SVG-20010904/DTD/svg10.dtd">
<svg version="1.0" xmlns="http://www.w3.org/2000/svg"
 width="600.000000pt" height="600.000000pt" viewBox="0 0 600.000000 600.000000"
 preserveAspectRatio="xMidYMid meet">

<g transform="translate(0.000000,600.000000) scale(0.100000,-0.100000)"
fill="#000000" stroke="none">
<path d="M2910 5488 c-25 -11 -52 -26 -60 -33 -19 -15 -53 -28 -46 -16 3 4
-15 11 -41 15 -53 7 -69 1 -24 -9 17 -4 31 -11 31 -16 0 -12 -43 -12 -55 0
-19 17 -285 -22 -285 -42 0 -5 8 -6 18 -2 19 7 108 25 126 25 18 0 -34 -24
-99 -44 -33 -11 -67 -25 -75 -31 -8 -7 -36 -18 -62 -26 -27 -7 -48 -17 -48
-22 0 -4 -5 -5 -10 -2 -6 4 -7 11 -4 17 14 22 -35 -13 -61 -44 -15 -18 -36
-36 -47 -40 -11 -4 -16 -12 -13 -18 4 -6 2 -9 -2 -8 -10 3 -88 -73 -85 -83 0
-3 -35 -48 -79 -99 -100 -118 -141 -198 -146 -287 -2 -36 -11 -79 -19 -95 -29
-56 -56 -188 -52 -252 3 -51 10 -70 41 -113 33 -48 39 -64 52 -160 7 -60 17
-144 21 -188 3 -44 12 -90 20 -102 19 -29 18 -83 0 -83 -8 0 -33 16 -56 35
-32 26 -51 35 -80 35 -47 0 -60 -15 -65 -77 -2 -26 -9 -75 -15 -108 -11 -55
-10 -66 15 -135 l26 -75 -7 65 c-14 119 -3 215 29 257 14 19 -2 35 -26 27 -19
-6 -20 -5 -9 9 10 12 19 14 39 6 28 -10 36 -18 77 -73 22 -29 31 -35 37 -25
10 16 11 7 14 -71 0 -25 4 -51 8 -57 9 -14 -5 -82 -28 -135 -8 -21 -15 -49
-15 -63 0 -19 -5 -25 -17 -23 -12 2 -19 -4 -21 -19 -2 -16 5 -26 27 -38 17 -8
31 -20 31 -25 0 -6 7 -10 15 -10 9 0 20 -10 26 -22 5 -13 16 -34 24 -48 14
-23 13 -26 -6 -42 -20 -17 -15 -23 17 -19 6 1 17 -6 25 -15 10 -12 10 -22 1
-46 -9 -24 -8 -29 3 -24 18 7 19 3 50 -209 29 -193 50 -270 96 -351 24 -42 29
-63 29 -116 0 -93 -9 -128 -31 -128 -11 0 -19 -4 -19 -9 0 -5 -15 -12 -34 -15
-57 -11 -63 -26 -44 -116 9 -43 30 -107 47 -142 57 -119 362 -520 435 -570 17
-12 -9 20 -58 72 -81 87 -206 264 -248 350 -17 36 -29 110 -17 110 3 0 7 23 8
52 0 28 6 55 12 59 8 4 9 20 5 43 -5 24 -3 36 5 36 6 0 8 7 5 17 -4 9 -1 20 6
24 9 6 9 11 0 22 -7 8 -12 25 -12 38 0 13 -2 39 -6 57 -3 17 -2 32 2 32 5 0
36 -27 68 -60 33 -33 64 -60 68 -60 5 0 47 -38 93 -85 47 -47 93 -86 103 -88
9 -1 23 -6 29 -10 7 -4 25 -10 40 -12 16 -2 42 -6 58 -9 24 -5 26 -5 9 3 -25
11 -43 47 -19 37 13 -5 14 -2 4 15 -14 27 4 41 37 29 12 -5 84 -17 161 -26
143 -18 149 -18 402 15 54 7 94 -5 136 -39 12 -10 18 -10 30 0 9 7 18 10 22 7
3 -4 12 -2 20 4 7 6 13 9 13 5 0 -3 16 10 36 29 20 19 41 35 48 35 7 0 21 9
31 20 10 11 23 20 29 20 6 0 22 12 35 25 12 14 27 22 32 20 5 -3 17 -2 27 4
25 13 48 -1 29 -18 -16 -13 -20 -61 -4 -61 5 0 7 -14 4 -32 -3 -18 -3 -27 0
-20 2 6 8 12 13 12 8 0 3 -86 -6 -102 -3 -4 0 -8 5 -8 6 0 11 -7 11 -15 0 -8
4 -15 10 -15 5 0 9 -12 9 -27 0 -16 2 -57 4 -93 2 -36 -3 -90 -10 -120 -8 -30
-15 -63 -17 -72 -7 -51 -359 -442 -411 -457 l-30 -9 31 -1 c17 -1 51 6 76 15
40 13 58 30 128 117 44 55 140 162 213 237 234 241 260 273 285 365 13 45 20
93 17 109 -7 37 -37 77 -52 71 -7 -2 -13 3 -13 11 0 10 -6 14 -15 10 -8 -3
-18 2 -23 10 -7 13 -14 11 -42 -13 -26 -21 -32 -23 -27 -10 8 21 -2 45 -12 29
-3 -5 -16 -12 -28 -16 -22 -7 -23 -5 -23 61 0 122 19 245 45 283 64 100 122
275 113 341 -3 16 0 25 5 22 6 -3 8 7 5 26 -3 18 -1 34 4 37 4 3 8 16 8 30 0
14 -4 22 -10 19 -5 -3 -10 3 -10 14 0 14 5 19 14 15 10 -4 14 1 13 15 -1 12
-6 21 -11 21 -6 0 -5 5 1 11 6 6 9 19 7 28 -3 9 0 6 7 -5 11 -22 57 -49 67
-39 3 3 0 5 -6 5 -6 0 -17 13 -25 30 -20 40 -8 87 17 63 11 -11 45 -13 51 -3
3 6 21 10 40 10 26 0 37 6 54 33 17 26 21 28 21 12 0 -12 3 -16 8 -9 4 6 15
13 25 17 18 7 24 27 7 27 -5 0 -10 5 -10 11 0 6 7 8 16 5 13 -5 15 -2 11 14
-3 11 -1 20 4 20 4 0 6 7 3 15 -4 8 -1 21 5 28 5 7 13 32 16 56 3 23 12 74 20
114 26 127 28 186 8 249 -30 94 -78 131 -117 92 -23 -22 -20 -37 4 -22 32 20
68 -23 80 -97 10 -58 -2 -249 -17 -285 -4 -8 -7 -29 -8 -47 -2 -21 -16 -49
-44 -82 -45 -53 -58 -59 -80 -38 -11 10 -12 8 -7 -13 19 -66 19 -70 -3 -70
-11 0 -21 -4 -21 -9 0 -12 -33 -8 -48 6 -11 10 -10 20 1 53 18 54 56 98 68 79
6 -10 9 -10 9 -2 0 7 13 19 29 27 44 23 46 61 8 121 -18 28 -43 71 -56 98 -13
26 -28 47 -32 47 -5 0 -9 5 -9 11 0 5 5 7 10 4 12 -7 13 7 10 93 -2 61 -1 64
19 57 16 -5 21 -2 21 11 0 19 78 94 98 94 7 0 23 -5 35 -11 21 -10 21 -9 -2
10 -26 23 -47 26 -85 11 -30 -11 -31 -9 -12 28 50 98 79 524 43 640 -19 62
-14 69 9 12 19 -46 29 -49 15 -4 -19 61 -22 84 -9 82 10 -2 13 17 13 74 -1 69
-5 84 -42 160 -23 46 -56 101 -73 123 -16 21 -28 40 -26 43 5 5 7 3 -68 94
-30 36 -79 88 -107 115 -29 26 -62 57 -73 68 -47 45 -146 127 -146 121 0 -4
-9 -2 -20 4 -42 22 -213 79 -222 74 -5 -3 -15 0 -23 6 -8 7 -15 8 -15 3 0 -6
-12 -8 -26 -5 -15 3 -29 -1 -34 -8 -5 -9 -17 -10 -36 -5 -16 5 -38 8 -49 7
-18 -2 -17 -1 3 8 30 13 28 22 -5 20 -45 -3 -63 -1 -63 9 0 5 8 12 18 14 9 2
0 3 -21 0 -33 -3 -43 1 -74 32 -31 31 -84 51 -68 25 4 -6 12 -8 18 -4 7 3 3
-2 -7 -10 -23 -19 -51 -22 -40 -4 5 8 2 9 -9 5 -10 -3 -17 -2 -17 2 0 5 6 12
13 14 6 3 -17 5 -53 5 -44 0 -80 -6 -110 -20z m74 -3 c-18 -13 -18 -14 6 -8
14 3 22 2 18 -2 -10 -11 -78 -17 -78 -7 0 4 12 13 28 19 39 16 49 15 26 -2z
m393 -697 c-11 16 -2 15 33 -3 15 -8 54 -18 85 -21 34 -4 65 -15 78 -26 l22
-19 -29 6 c-24 5 -27 4 -19 -7 6 -7 10 -32 10 -55 0 -33 -4 -43 -16 -43 -14
-1 -13 -2 2 -11 9 -5 17 -20 18 -32 0 -12 5 -31 10 -42 6 -14 7 -3 3 33 -5 40
-3 52 8 52 19 0 37 -33 34 -64 -3 -20 0 -26 10 -22 9 3 16 -4 20 -20 4 -14 9
-22 13 -17 9 14 48 13 60 -1 9 -10 1 -13 -39 -12 -33 1 -51 -3 -55 -12 -2 -7
1 -12 8 -11 6 1 20 1 31 0 15 -1 16 -4 6 -16 -14 -17 0 -21 17 -4 7 7 12 4 16
-10 3 -12 1 -19 -3 -16 -5 3 -10 0 -12 -6 -5 -15 -36 0 -43 22 -4 10 -11 19
-16 19 -6 0 -7 -9 -3 -22 6 -20 5 -21 -8 -10 -9 7 -15 24 -15 38 0 14 -8 33
-17 42 -11 11 -16 12 -16 4 0 -7 -5 -10 -10 -7 -6 4 -8 10 -5 15 3 4 -2 10
-10 14 -20 7 -19 -8 1 -25 10 -8 13 -21 9 -36 -4 -16 -1 -23 9 -23 7 0 19 -6
25 -14 15 -17 -7 -27 -41 -19 -20 6 -21 5 -10 -10 8 -9 11 -21 8 -26 -7 -10
31 -51 48 -51 5 0 6 3 3 7 -4 3 -2 12 4 20 9 10 8 13 -4 13 -9 0 -15 8 -14 19
1 14 9 18 34 18 20 -1 33 -6 33 -14 0 -7 5 -13 11 -13 5 0 7 -5 3 -11 -3 -6
-1 -15 6 -19 16 -10 3 -33 -13 -24 -7 4 -8 3 -4 -2 5 -5 11 -8 14 -6 5 3 33
-44 33 -54 0 -14 -20 0 -25 17 -4 11 -9 18 -12 15 -7 -7 23 -53 53 -81 29 -27
30 -35 5 -35 -11 0 -27 10 -35 21 -13 19 -16 20 -36 6 -13 -9 -17 -17 -11 -22
26 -16 7 -21 -41 -12 -29 5 -64 9 -78 8 -14 -1 -53 -3 -88 -4 -50 -2 -67 -6
-78 -21 -9 -13 -14 -15 -14 -6 0 23 -21 -4 -24 -31 -3 -29 -25 -73 -33 -65 -3
3 0 13 7 22 15 17 21 54 9 54 -4 0 -10 -6 -12 -12 -3 -7 -6 -4 -7 7 -1 20 -1
20 -15 1 -11 -14 -15 -16 -15 -5 0 12 -2 12 -10 -1 -11 -17 -14 -37 -3 -27 3
4 12 -1 19 -11 10 -14 10 -20 -4 -35 -15 -16 -15 -17 1 -11 11 4 17 1 17 -9 0
-8 -11 -18 -25 -21 -14 -4 -32 -17 -41 -31 -9 -15 -26 -25 -39 -25 -13 0 -26
-7 -29 -16 -3 -8 -11 -12 -17 -8 -8 5 -9 3 -5 -5 5 -7 1 -18 -10 -25 -12 -9
-18 -28 -19 -57 -2 -59 26 -110 78 -143 15 -10 27 -25 27 -32 0 -8 7 -14 16
-14 10 0 14 6 10 15 -3 10 1 15 12 15 13 0 14 2 4 9 -11 6 -11 10 0 19 9 7 19
8 28 2 25 -16 36 -11 12 6 -12 8 -19 20 -16 26 4 7 2 8 -4 4 -13 -8 -40 40
-29 50 3 4 22 3 41 0 35 -7 36 -7 20 -31 -14 -22 -14 -24 3 -33 10 -5 35 -10
56 -10 42 -2 51 19 17 40 -27 17 -25 26 5 20 14 -2 25 0 25 5 0 16 -24 33 -47
33 -13 0 -23 3 -23 8 0 6 84 62 94 62 2 0 6 -12 8 -27 3 -16 9 -37 13 -47 7
-16 5 -18 -13 -14 -12 4 -20 2 -16 -3 3 -5 13 -9 22 -9 15 0 15 -2 2 -10 -13
-8 -12 -10 3 -10 9 0 17 4 17 9 0 4 11 6 25 3 14 -2 22 -8 19 -13 -3 -5 -10
-7 -15 -4 -5 4 -9 2 -9 -2 0 -12 58 -33 62 -22 2 5 13 6 25 3 13 -4 20 -11 16
-17 -4 -6 0 -8 11 -4 10 4 19 1 22 -7 13 -34 131 -11 157 31 10 17 49 17 66 1
10 -9 12 -9 7 -1 -11 19 12 25 52 12 20 -6 44 -14 52 -16 13 -4 13 -5 0 -14
-12 -9 -12 -10 3 -5 10 3 25 6 33 6 9 0 12 5 8 11 -4 8 -1 8 12 1 23 -12 44
-5 44 14 0 8 4 14 9 14 13 0 9 -39 -6 -66 -7 -11 -9 -32 -6 -45 l6 -24 -21 25
c-21 25 -30 18 -13 -9 6 -9 6 -23 -1 -35 -9 -17 -8 -19 3 -8 28 27 35 2 13
-52 -6 -15 -4 -17 7 -11 11 6 12 5 2 -6 -17 -17 -16 -22 6 -48 18 -21 19 -57
1 -46 -4 2 -5 -7 -2 -21 3 -15 -1 -29 -8 -34 -7 -4 -13 -30 -14 -57 -1 -36 -5
-49 -13 -46 -12 5 -14 -1 -17 -49 -1 -9 -4 -20 -8 -24 -5 -4 -8 -18 -8 -30 0
-13 -4 -25 -9 -28 -5 -4 -7 12 -4 36 3 30 1 39 -5 28 -6 -8 -9 -32 -8 -53 1
-21 -1 -40 -5 -42 -8 -5 1 -65 10 -65 4 0 8 -15 8 -32 1 -18 4 -53 8 -77 5
-28 4 -41 -3 -37 -10 6 -23 -65 -13 -74 3 -3 5 -12 5 -20 -1 -8 -2 -22 -3 -31
0 -8 -10 -25 -21 -37 -12 -12 -16 -22 -11 -22 14 0 1 -72 -17 -92 -11 -13 -11
-18 -3 -18 8 0 7 -5 -3 -16 -20 -20 -22 -41 -2 -25 12 10 13 8 9 -9 -7 -27
-29 -36 -47 -20 -12 9 -19 7 -36 -10 -25 -25 -19 -40 7 -19 17 13 17 13 3 -6
-8 -11 -15 -21 -16 -23 -1 -2 -19 6 -40 18 -36 19 -40 19 -51 3 -7 -9 -13 -22
-13 -29 0 -6 -8 -18 -17 -25 -15 -12 -16 -12 -10 3 5 13 1 18 -13 18 -11 0
-20 -6 -20 -14 0 -20 -42 -48 -53 -37 -13 13 -47 1 -47 -16 0 -8 -5 -11 -11
-7 -6 3 -15 0 -20 -7 -7 -11 -11 -11 -17 -1 -10 14 -43 6 -55 -14 -4 -7 -14
-11 -22 -8 -9 4 -16 -3 -21 -20 -3 -14 -10 -23 -15 -20 -5 3 -9 0 -9 -6 0 -7
-7 -10 -15 -6 -10 4 -15 -1 -15 -14 0 -13 -7 -20 -19 -20 -10 0 -22 -8 -26
-17 -6 -16 -8 -15 -17 7 -8 23 -10 23 -19 7 -6 -9 -7 -22 -3 -29 4 -6 3 -8 -4
-4 -6 3 -14 1 -18 -5 -4 -8 -9 -7 -15 2 -7 11 -9 11 -9 1 0 -8 -5 -10 -12 -5
-17 10 -78 12 -83 2 -3 -4 -15 -5 -28 -2 -17 4 -19 3 -7 -6 12 -8 9 -10 -13
-7 -15 1 -30 6 -34 9 -3 4 -20 7 -37 6 -30 -1 -30 -1 -6 -9 22 -7 19 -8 -16
-9 -22 -1 -44 2 -48 6 -11 12 -98 14 -111 3 -9 -7 -16 -6 -24 4 -9 11 -20 12
-44 5 -50 -14 -87 -11 -87 7 0 9 -5 14 -12 12 -7 -3 -20 9 -29 26 -9 17 -23
31 -32 31 -21 0 -57 34 -57 54 0 13 -2 13 -9 3 -6 -11 -10 -10 -16 5 -5 10 -7
25 -6 33 2 10 -2 9 -12 -5 -11 -15 -18 -17 -28 -8 -14 11 -19 13 -39 13 -5 0
-10 7 -10 15 0 8 -6 12 -14 9 -22 -8 -31 17 -12 32 12 8 14 14 6 19 -14 9 -15
8 -28 -30 -6 -17 -11 -22 -11 -12 -1 11 -10 17 -28 18 -16 1 -32 2 -38 4 -5 1
-16 3 -24 3 -11 2 -10 6 5 17 21 16 21 16 -24 20 -35 3 -62 20 -62 40 0 11
-34 26 -64 29 -5 1 -10 10 -12 20 -1 10 -8 22 -14 26 -6 4 -13 25 -15 48 -2
22 -9 50 -15 61 -8 16 -8 21 2 21 7 0 5 5 -5 13 -23 18 -30 59 -13 82 12 17
12 21 -3 33 -9 7 -10 10 -2 6 11 -6 13 -3 6 12 -16 39 -25 123 -16 147 5 14 7
28 4 31 -4 3 -1 6 6 6 8 0 11 6 6 18 -4 9 -7 73 -8 142 -1 86 -6 129 -14 138
-15 16 -18 92 -3 92 5 0 8 23 6 52 -2 35 2 57 11 67 8 7 11 16 8 19 -3 4 -10
0 -16 -8 -6 -11 -8 -6 -7 19 2 22 8 36 19 38 11 3 15 11 11 25 -3 13 1 24 11
30 9 4 14 15 11 23 -4 10 0 12 15 8 12 -3 21 -1 21 6 0 6 -8 11 -17 11 -14 0
-15 2 -4 9 7 5 11 13 7 19 -9 15 23 23 45 12 11 -6 27 -10 37 -8 11 2 18 -5
20 -19 2 -13 8 -23 13 -23 6 0 8 -4 5 -8 -15 -24 71 -51 114 -36 13 4 13 6 0
14 -13 8 -12 10 3 10 9 0 17 -6 17 -12 0 -7 5 -5 11 5 6 11 22 17 44 17 19 0
37 5 40 11 4 6 13 8 21 5 9 -3 14 1 15 12 0 10 3 12 6 5 8 -20 23 -15 23 8 0
14 5 19 18 17 9 -2 16 -9 15 -14 -2 -11 2 -12 49 -17 16 -2 31 -7 35 -12 5 -4
1 -5 -7 0 -12 6 -12 5 -3 -5 6 -7 17 -9 23 -5 8 5 9 10 1 18 -24 24 -11 37 38
37 55 0 75 -21 45 -49 -15 -15 -16 -14 -10 4 6 18 5 19 -7 3 -8 -10 -17 -15
-20 -11 -4 3 -7 1 -7 -5 0 -6 12 -15 26 -18 19 -5 24 -12 21 -25 -3 -11 -1
-16 4 -13 5 3 12 -2 15 -10 3 -9 10 -16 16 -16 5 0 6 6 2 13 -5 7 0 6 11 -3
11 -9 16 -10 11 -2 -6 11 0 14 20 11 12 -1 24 26 24 54 0 15 7 30 15 33 8 4
15 14 15 23 0 9 5 22 10 27 13 13 3 44 -14 44 -6 0 -4 5 4 10 10 7 11 10 2 10
-8 0 -10 8 -6 25 3 14 2 25 -2 25 -5 0 -23 13 -40 30 -18 16 -34 26 -37 23 -3
-3 -3 4 0 15 3 14 -2 24 -19 33 -20 10 -58 46 -58 55 0 1 13 0 29 -2 16 -3 32
0 35 5 9 14 -40 45 -59 38 -8 -4 -17 -2 -21 4 -3 6 -11 8 -18 6 -6 -3 -20 1
-31 9 -10 8 -27 14 -37 14 -10 0 -18 5 -18 11 0 5 -4 7 -10 4 -5 -3 -10 -2
-10 3 0 13 -82 8 -139 -7 -24 -7 -47 -8 -50 -3 -3 5 -15 12 -26 16 -18 8 -18
9 10 22 17 7 24 13 18 14 -7 0 -13 7 -13 16 0 12 -5 14 -17 9 -10 -4 -35 -9
-55 -10 -20 -2 -41 -6 -47 -10 -23 -14 -9 6 15 21 22 15 27 15 36 3 7 -10 8
-9 3 7 -4 17 3 28 37 53 24 16 48 35 55 41 7 5 17 10 23 10 5 0 10 5 10 11 0
5 4 8 9 4 5 -3 13 0 16 6 5 7 -1 9 -16 7 -22 -3 -24 1 -24 40 0 47 1 46 -28
30 -21 -11 -21 -10 -7 8 8 10 18 21 22 24 3 3 8 21 10 40 1 19 10 40 18 47 18
15 34 17 25 4 -3 -5 0 -13 6 -16 7 -5 9 1 7 16 -2 13 -10 27 -18 31 -9 4 -4 7
15 7 17 1 36 6 43 13 24 24 197 81 252 83 30 1 65 7 78 14 13 7 33 14 45 17
93 20 124 23 161 18 28 -4 37 -3 27 4 -11 8 -10 11 6 16 11 4 33 6 49 6 16 0
51 1 77 3 51 4 53 -9 2 -16 l-30 -4 30 -1 c17 -1 53 7 80 16 45 16 52 16 75 2
15 -10 21 -11 17 -2z m-750 -94 c-3 -3 -12 -4 -19 -1 -8 3 -5 6 6 6 11 1 17
-2 13 -5z m1634 -54 c5 -54 -3 -64 -15 -20 -13 45 -11 69 4 53 5 -4 10 -19 11
-33z m-1869 -122 c-7 -7 -12 -8 -12 -2 0 14 12 26 19 19 2 -3 -1 -11 -7 -17z
m-42 -58 c-8 -5 -17 -7 -19 -4 -3 3 1 9 9 14 8 5 17 7 19 4 3 -3 -1 -9 -9 -14z
m1240 6 c9 -12 8 -15 -8 -13 -12 0 -18 6 -15 14 6 16 8 16 23 -1z m-1190 -45
c0 -6 -5 -13 -12 -17 -7 -5 -9 -2 -4 7 4 8 0 5 -8 -5 -16 -19 -16 -19 -16 2 0
15 6 22 20 22 11 0 20 -4 20 -9z m1354 -17 c3 -9 3 -20 0 -25 -8 -13 -34 9
-34 27 0 19 26 18 34 -2z m-34 -104 c0 -5 -7 -7 -15 -4 -8 4 -15 8 -15 10 0 2
7 4 15 4 8 0 15 -4 15 -10z m-349 -187 c-8 -15 -10 -15 -11 -2 0 17 10 32 18
25 2 -3 -1 -13 -7 -23z m-882 -49 c41 -4 59 -9 51 -14 -8 -5 -18 -6 -22 -4 -4
3 -8 0 -8 -6 0 -16 -46 -30 -114 -36 -34 -2 -82 -7 -108 -11 -33 -4 -48 -2
-48 6 0 8 -11 6 -32 -6 -18 -9 -37 -16 -42 -15 -4 2 -16 -3 -25 -10 -13 -10
-14 -10 -3 2 16 18 16 38 0 22 -7 -7 -19 -12 -27 -12 -13 1 -12 4 4 16 11 8
30 13 42 11 12 -2 20 -1 18 3 -6 9 19 20 45 20 10 0 21 4 25 9 3 5 -8 9 -25 9
-17 -1 -33 1 -35 4 -8 8 113 20 125 13 6 -3 10 -2 10 3 0 9 30 8 169 -4z
m1221 -25 c30 -1 46 -4 35 -7 -15 -4 -8 -9 29 -21 50 -16 73 -40 39 -42 -16 0
-16 -1 2 -9 12 -4 27 -15 34 -24 13 -15 11 -17 -23 -14 -21 1 -40 6 -42 10 -3
4 -14 8 -25 8 -10 0 -19 4 -19 9 0 5 -21 9 -47 9 -27 1 -59 4 -73 7 -21 5
-130 25 -137 25 -2 0 -3 6 -3 14 0 8 -7 17 -16 20 -9 4 -14 10 -10 14 12 11
117 18 161 10 22 -4 65 -8 95 -9z m-1590 -99 c0 -5 -5 -10 -11 -10 -5 0 -7 5
-4 10 3 6 8 10 11 10 2 0 4 -4 4 -10z m250 -52 c0 -13 9 -38 20 -55 18 -30 18
-33 3 -33 -26 0 -103 40 -103 54 0 20 39 56 60 56 14 0 20 -7 20 -22z m295
-39 c22 -11 30 -18 19 -16 -12 2 -54 -1 -93 -8 -67 -11 -70 -11 -56 5 8 9 18
31 21 48 l7 32 31 -20 c17 -11 49 -29 71 -41z m-155 41 c0 -5 -4 -10 -10 -10
-5 0 -10 5 -10 10 0 6 5 10 10 10 6 0 10 -4 10 -10z m248 -25 c4 -4 1 -10 -5
-12 -7 -3 -13 -11 -13 -18 0 -9 -12 -3 -30 15 -16 16 -30 31 -30 34 0 6 71
-11 78 -19z m792 -5 c0 -5 -4 -10 -10 -10 -5 0 -10 5 -10 10 0 6 5 10 10 10 6
0 10 -4 10 -10z m116 -15 c28 -38 12 -57 -60 -71 l-39 -7 21 31 c12 16 22 37
22 44 0 32 34 33 56 3z m-416 -20 c-24 -26 -42 -27 -21 -1 9 11 9 15 -1 19 -7
3 0 6 16 6 l29 1 -23 -25z m-817 -42 c-7 -2 -19 -2 -25 0 -7 3 -2 5 12 5 14 0
19 -2 13 -5z m1130 -30 c-7 -2 -19 -2 -25 0 -7 3 -2 5 12 5 14 0 19 -2 13 -5z
m-1523 -34 c0 -6 -4 -7 -10 -4 -5 3 -10 11 -10 16 0 6 5 7 10 4 6 -3 10 -11
10 -16z m-133 -116 c-3 -10 -5 -4 -5 12 0 17 2 24 5 18 2 -7 2 -21 0 -30z
m-30 -310 c-3 -10 -5 -4 -5 12 0 17 2 24 5 18 2 -7 2 -21 0 -30z m2253 2 c0
-8 -4 -15 -10 -15 -5 0 -7 7 -4 15 4 8 8 15 10 15 2 0 4 -7 4 -15z m-133 -227
c-3 -8 -6 -5 -6 6 -1 11 2 17 5 13 3 -3 4 -12 1 -19z m-1817 -528 c0 -5 -2
-10 -4 -10 -3 0 -8 5 -11 10 -3 6 -1 10 4 10 6 0 11 -4 11 -10z m1580 -54 c0
-3 -4 -8 -10 -11 -5 -3 -10 -1 -10 4 0 6 5 11 10 11 6 0 10 -2 10 -4z m-160
-90 c0 -2 -7 -7 -16 -10 -8 -3 -12 -2 -9 4 6 10 25 14 25 6z m-975 -127 c11
-16 1 -19 -13 -3 -7 8 -8 14 -3 14 5 0 13 -5 16 -11z m400 -169 c3 -6 -1 -7
-9 -4 -18 7 -21 14 -7 14 6 0 13 -4 16 -10z m-60 -70 c-3 -5 -14 -10 -23 -9
-14 0 -13 2 3 9 27 11 27 11 20 0z m55 -11 c0 -5 -7 -9 -15 -9 -9 0 -12 6 -9
15 6 15 24 11 24 -6z"/>
<path d="M3405 4528 c4 -18 12 -42 19 -53 10 -18 11 -16 14 18 2 20 8 37 15
37 15 0 -25 29 -41 30 -10 0 -12 -9 -7 -32z"/>
<path d="M2440 4460 c0 -5 5 -10 11 -10 5 0 7 5 4 10 -3 6 -8 10 -11 10 -2 0
-4 -4 -4 -10z"/>
<path d="M3425 4430 c-3 -5 -1 -10 4 -10 6 0 11 5 11 10 0 6 -2 10 -4 10 -3 0
-8 -4 -11 -10z"/>
<path d="M3620 4365 c7 -9 15 -13 17 -11 7 7 -7 26 -19 26 -6 0 -6 -6 2 -15z"/>
<path d="M3615 4332 c-6 -6 4 -22 15 -22 4 0 10 6 13 13 5 13 -17 20 -28 9z"/>
<path d="M2345 4289 c-4 -5 -11 -7 -16 -4 -5 4 -9 1 -9 -4 0 -12 16 -13 44 -2
17 7 18 8 3 14 -9 3 -19 2 -22 -4z"/>
<path d="M3625 4210 c4 -6 11 -8 16 -5 14 9 11 15 -7 15 -8 0 -12 -5 -9 -10z"/>
<path d="M2105 3720 c-3 -5 -2 -10 4 -10 5 0 13 5 16 10 3 6 2 10 -4 10 -5 0
-13 -4 -16 -10z"/>
<path d="M2185 3720 c-3 -5 -1 -10 4 -10 6 0 11 5 11 10 0 6 -2 10 -4 10 -3 0
-8 -4 -11 -10z"/>
<path d="M2086 3691 c-3 -5 1 -11 9 -14 9 -4 12 -1 8 9 -6 16 -10 17 -17 5z"/>
<path d="M2078 3633 c7 -3 16 -2 19 1 4 3 -2 6 -13 5 -11 0 -14 -3 -6 -6z"/>
<path d="M3130 3556 c5 -14 7 -26 4 -26 -4 0 1 -11 10 -25 9 -13 16 -42 16
-65 0 -22 4 -39 9 -37 5 1 27 -13 50 -32 34 -29 41 -40 41 -72 0 -50 -21 -66
-64 -51 -18 7 -39 12 -48 12 -9 0 -21 7 -28 15 -22 26 -53 17 -83 -26 -26 -39
-29 -39 -82 -38 -49 2 -57 5 -68 28 -16 33 -80 68 -85 46 -5 -22 -77 -41 -97
-25 -8 7 -15 19 -15 26 0 8 -4 14 -10 14 -31 0 52 -106 88 -113 15 -3 35 -9
45 -12 12 -5 17 -2 17 12 0 10 -5 24 -12 31 -9 9 -5 12 19 12 19 0 33 -6 37
-16 3 -8 26 -24 51 -35 37 -16 51 -18 83 -10 21 6 47 19 58 29 11 10 33 22 49
25 l30 7 -37 -33 c-21 -19 -38 -39 -38 -44 0 -15 -74 -36 -109 -31 -17 2 -31
1 -31 -4 0 -4 -7 -8 -15 -8 -8 0 -14 3 -14 8 4 21 -4 27 -38 27 -21 0 -44 -4
-50 -8 -8 -5 -13 -4 -13 2 0 6 -7 8 -15 5 -8 -4 -15 -10 -15 -16 0 -5 5 -6 12
-2 7 4 8 3 4 -4 -4 -7 -14 -12 -22 -12 -8 0 -26 -7 -39 -16 -14 -9 -25 -12
-25 -8 0 5 -8 -7 -18 -26 -9 -19 -21 -34 -27 -34 -5 1 -20 -2 -32 -7 -13 -5
-23 -5 -23 0 0 5 -7 8 -15 7 -23 -3 -52 -35 -58 -62 -4 -25 7 -34 16 -11 4 7
6 8 6 1 1 -6 -6 -17 -14 -24 -10 -8 -15 -9 -15 -2 0 6 -8 9 -17 5 -15 -5 -15
-3 2 11 14 12 16 19 7 22 -6 3 -10 10 -6 15 3 5 1 9 -4 9 -6 0 -13 -7 -16 -16
-3 -8 -2 -12 4 -9 22 13 8 -8 -20 -32 -51 -42 -34 -103 29 -103 16 0 32 -4 35
-9 3 -5 25 -7 49 -5 40 5 43 3 54 -27 9 -23 17 -30 29 -25 9 3 22 2 28 -2 23
-18 45 -22 39 -6 -3 8 1 14 11 14 9 0 16 5 16 11 0 5 4 8 9 4 5 -3 12 -1 16 5
3 5 1 10 -4 10 -6 0 -11 5 -11 12 0 6 3 8 7 5 3 -4 11 -1 17 7 13 16 73 29 81
17 3 -5 14 -7 25 -4 13 3 20 0 20 -8 0 -11 2 -11 10 1 8 12 10 12 10 1 0 -11
3 -11 15 -1 12 10 15 9 16 -6 0 -17 2 -17 11 3 9 19 17 21 82 19 99 -4 99 -4
92 -21 -5 -14 10 -20 42 -16 10 2 12 -4 7 -18 -6 -19 -4 -20 20 -11 15 6 30 8
34 6 4 -3 15 4 24 15 18 21 37 25 37 9 0 -7 8 -7 22 1 27 15 98 20 98 7 0 -5
5 -6 12 -2 7 4 25 8 41 8 38 1 57 28 39 56 -7 12 -10 25 -7 31 4 5 1 8 -5 7
-6 -2 -19 8 -28 22 -9 13 -11 21 -4 16 18 -11 15 9 -5 25 -14 12 -16 12 -9 -1
4 -8 -9 3 -29 25 -26 29 -33 33 -24 15 l12 -25 -24 22 c-25 23 -96 42 -84 23
10 -17 -4 -11 -25 10 -12 12 -25 18 -30 15 -5 -3 -7 3 -5 14 2 14 -1 18 -11
14 -8 -3 -14 0 -14 6 0 17 -40 52 -51 45 -14 -8 -59 4 -59 16 0 6 7 10 15 10
9 0 30 8 48 17 32 17 38 19 57 22 6 0 19 16 30 34 21 33 27 62 11 53 -12 -8
-24 25 -12 37 10 10 -23 110 -39 115 -5 2 -17 19 -26 38 -9 19 -34 48 -55 65
l-39 31 10 -26z m-406 -491 c-4 -8 -11 -15 -16 -15 -6 0 -5 6 2 15 7 8 14 15
16 15 2 0 1 -7 -2 -15z m172 -22 c4 4 13 -2 21 -13 9 -12 26 -20 43 -20 33 0
80 19 80 32 0 5 4 7 9 4 5 -4 11 0 14 6 3 10 7 10 20 -1 10 -7 17 -10 17 -5 0
4 7 -1 15 -12 12 -15 16 -16 24 -5 7 11 20 7 66 -18 31 -17 60 -29 64 -26 11
6 66 -53 57 -62 -4 -4 -21 0 -39 9 -54 28 -158 58 -201 58 -23 0 -51 -7 -63
-15 -18 -13 -34 -13 -96 -5 -67 10 -82 8 -136 -10 -33 -11 -67 -20 -76 -20 -8
0 -15 -5 -15 -12 0 -6 -2 -9 -5 -6 -8 8 6 39 15 33 4 -2 15 4 25 15 10 11 22
17 27 14 5 -3 17 1 27 10 10 9 25 14 35 10 11 -4 16 -1 16 10 0 11 7 16 18 14
12 -2 16 3 14 17 -2 16 -1 17 7 5 5 -8 13 -11 17 -7z m-326 -48 c-7 -8 -17
-15 -23 -15 -6 0 -2 8 9 19 22 21 33 19 14 -4z m770 -26 c0 -6 -4 -7 -10 -4
-5 3 -10 11 -10 16 0 6 5 7 10 4 6 -3 10 -11 10 -16z m-241 -10 c-19 -12 -29
-11 -29 2 0 5 5 7 10 4 6 -3 10 -1 10 5 0 6 5 8 11 4 8 -4 7 -9 -2 -15z"/>
<path d="M2807 3562 c-9 -2 -15 -7 -12 -12 3 -5 -3 -14 -13 -19 -22 -12 -35
-48 -19 -54 19 -6 -3 -27 -29 -27 -14 0 -24 -6 -24 -14 0 -8 -4 -16 -9 -18 -5
-1 -11 -23 -15 -48 l-5 -45 18 23 c11 12 25 22 33 22 8 0 19 5 25 11 7 7 12 1
16 -20 4 -17 11 -31 17 -31 13 0 13 77 0 85 -27 17 6 100 45 115 14 5 25 15
25 21 0 8 -4 8 -14 0 -11 -9 -15 -9 -18 1 -1 8 -11 12 -21 10z"/>
<path d="M3984 3520 c3 -14 6 -28 6 -32 0 -5 4 -8 9 -8 12 0 9 20 -8 45 -12
19 -12 19 -7 -5z"/>
<path d="M2130 3400 c0 -19 3 -21 12 -12 9 9 9 15 0 24 -9 9 -12 7 -12 -12z"/>
<path d="M3137 3364 c-8 -8 3 -34 14 -34 11 0 12 27 0 34 -4 3 -11 3 -14 0z"/>
<path d="M2090 3093 c0 -5 4 -15 10 -23 11 -18 25 -7 17 15 -6 15 -27 21 -27
8z"/>
<path d="M3145 2741 c-3 -5 -1 -12 5 -16 5 -3 10 1 10 9 0 18 -6 21 -15 7z"/>
<path d="M2837 2709 c28 -28 243 -31 243 -4 0 9 -34 12 -126 13 -76 0 -122 -4
-117 -9z"/>
<path d="M3625 2450 c-3 -5 -1 -10 4 -10 6 0 11 5 11 10 0 6 -2 10 -4 10 -3 0
-8 -4 -11 -10z"/>
<path d="M3300 2299 c0 -5 5 -7 10 -4 6 3 10 8 10 11 0 2 -4 4 -10 4 -5 0 -10
-5 -10 -11z"/>
<path d="M1708 3285 c3 -20 7 -23 13 -13 7 11 11 10 19 -2 8 -12 10 -10 10 9
0 16 -4 21 -14 18 -7 -3 -18 -1 -24 5 -6 6 -8 1 -4 -17z"/>
<path d="M1760 3215 c0 -7 7 -18 15 -22 9 -6 11 -13 5 -23 -7 -11 -11 -11 -24
-1 -21 17 -20 7 0 -25 13 -19 20 -22 30 -13 13 11 18 5 15 -14 -1 -5 11 -7 25
-5 23 3 27 8 28 36 1 17 -3 32 -8 32 -5 0 -24 11 -42 25 -38 29 -44 30 -44 10z"/>
<path d="M2311 1674 c0 -11 3 -14 6 -6 3 7 2 16 -1 19 -3 4 -6 -2 -5 -13z"/>
<path d="M2725 1186 c41 -36 68 -42 130 -26 34 9 18 13 -38 10 -24 -1 -54 8
-85 24 l-47 26 40 -34z"/>
<path d="M3085 1180 c-3 -5 -1 -10 4 -10 6 0 11 5 11 10 0 6 -2 10 -4 10 -3 0
-8 -4 -11 -10z"/>
<path d="M2510 1170 c0 -5 5 -10 10 -10 6 0 10 5 10 10 0 6 -4 10 -10 10 -5 0
-10 -4 -10 -10z"/>
<path d="M2573 1173 c9 -2 23 -2 30 0 6 3 -1 5 -18 5 -16 0 -22 -2 -12 -5z"/>
<path d="M2452 1165 c10 -11 48 -14 48 -4 0 5 -12 9 -27 9 -14 0 -24 -2 -21
-5z"/>
<path d="M2958 1128 c20 -54 21 -55 32 -38 12 19 3 51 -18 68 -27 21 -31 13
-14 -30z"/>
<path d="M2422 1135 c0 -16 2 -22 5 -12 2 9 2 23 0 30 -3 6 -5 -1 -5 -18z"/>
<path d="M3220 1115 c14 -8 32 -14 40 -14 8 0 0 6 -19 14 -42 19 -54 19 -21 0z"/>
<path d="M1980 1000 c-18 -12 -2 -12 25 0 13 6 15 9 5 9 -8 0 -22 -4 -30 -9z"/>
<path d="M3360 994 l-25 -14 25 -1 c14 -1 31 -1 38 0 9 2 11 -6 6 -26 l-7 -28
29 25 c16 14 31 26 33 27 4 3 -66 34 -71 32 -2 -1 -14 -7 -28 -15z"/>
<path d="M2822 924 c10 -10 20 -15 24 -12 3 4 -5 12 -18 18 -22 12 -22 12 -6
-6z"/>
<path d="M3570 885 c0 -23 2 -24 20 -15 11 6 20 13 20 15 0 2 -9 9 -20 15 -18
9 -20 8 -20 -15z"/>
</g>
</svg>
